# xmcd CD database file
#
# Track frame offsets:
#	150
#	13160
#	29805
#	46057
#	65605
#	79632
#	89927
#	100587
#	115767
#	136225
#	151037
#	160392
#	173342
#	184042
#	204302
#
# Disc length: 3136 seconds
#
# Revision: 7
# Processed by: cddbd v1.5.2PL0 Copyright (c) Steve Scherf et al.
# Submitted via: CDex 1.70beta2
#
DISCID=ba0c3e0f
DTITLE=Antonio Carlos Jobim - The Man from Ipanema [CD2]
DYEAR=1995
DGENRE=Jazz
TTITLE0=Wave
TTITLE1=Tide
TTITLE2=Amor Em Paz (Once I Loved) 2
TTITLE3=Chega de Saudade (No More Blues)
TTITLE4=Sue Ann
TTITLE5=Samba de Uma Nota So (One Note Samba)
TTITLE6=Mojave
TTITLE7=O Morro Nao Tem Vez (aka Favela)
TTITLE8=Tema Jazz
TTITLE9=Meditation (Meditacao)
TTITLE10=Triste
TTITLE11=Agua de Beber 2
TTITLE12=So Danco Samba (Jazz Samba)
TTITLE13=Captain Bacardi
TTITLE14=O Morro Nao Tem Vez - Luiz Bonfa
EXTD=YEAR: 1995
EXTT0=
EXTT1=
EXTT2=
EXTT3=
EXTT4=
EXTT5=
EXTT6=
EXTT7=
EXTT8=
EXTT9=
EXTT10=
EXTT11=
EXTT12=
EXTT13=
EXTT14=
PLAYORDER=
